<svg height="512" viewBox="0 0 52 60" width="512" xmlns="http://www.w3.org/2000/svg"><g id="Page-1" fill="none" fill-rule="evenodd"><g id="036---Trophy" fill="rgb(0,0,0)" fill-rule="nonzero" transform="translate(-1)"><path id="Shape" d="m16.0518 39.6011c.0963675-.3446147.0013898-.7144597-.2491-.97-.7803953-.7937648-1.4519311-1.6876439-1.997-2.6582-.2704815-.4816475-.8802025-.6528314-1.36185-.38235-.4816475.2704815-.6528314.8802025-.38235 1.36185.3396998.6039753.721861 1.1830651 1.1436 1.7329-.5754686.0806616-1.1552999.1263455-1.7363.1368-.3572656.0031261-.6857249.1966136-.8616504.5075777s-.1725901.692162.00875 1c.1813401.3078381.5131348.4955484.8704004.4924223h.0176c1.2935536-.0247767 2.5798466-.1997837 3.833-.5215.3461645-.0886859.6186979-.3553486.7149-.6995z"/><path id="Shape" d="m10.6787 36.07c-.3926101-1.0564108-.6724646-2.1513595-.8349-3.2666-.04395423-.3601088-.27949129-.6681693-.61548192-.8049927-.33599062-.1368234-.7197312-.0809477-1.00275254.1460088-.28302135.2269565-.42092863.5893934-.36036554.9470839.09779548.6732131.23378151 1.3403226.4073 1.9981-.46732343-.1319288-.92673701-.2904199-1.376-.4747-.33191405-.1421419-.71467712-.0943182-1.00141412.1251201-.286737.2194382-.43291218.5764081-.38243471.933932.05047747.3575238.28976745.6600713.62604883.7915479 1.11110625.4577312 2.27505745.7748213 3.4648.9439.04595414.0064647.09229378.0098057.1387.01.3274942-.0001917.6341406-.1607291.8208915-.4297581.1867509-.2690289.2299368-.6124519.1156085-.9193419z"/><path id="Shape" d="m6.041 32.6982c.27028266.0001121.52910044-.1091889.71748714-.3030012.18838669-.1938122.29029702-.4556282.28251286-.7257988-.0344088-1.1438801.03457144-2.2885303.2061-3.42.07230746-.5401087-.30113278-1.0386786-.83978036-1.121168-.53864758-.0824895-1.04417761.2814734-1.13681964.818468-.0937.6123-.16 1.2344-.1982 1.8618-.3496-.2788-.6914-.5781333-1.0254-.898-.40059917-.3699637-1.02374271-.3507786-1.40082414.043128-.37708144.3939067-.36906357 1.0172939.01802414 1.401372.86910884.8390028 1.8298898 1.577518 2.8642 2.2016.15491795.0927714.33212846.1417142.5127.1416z"/><path id="Shape" d="m3.9844 26.8271c.4564857-.0006872.85479538-.3098532.9687-.7519.27371401-1.0809766.64269072-2.1355687 1.1026-3.1514.15993833-.3265825.12998497-.7142464-.07822315-1.0123836s-.5618492-.4597495-.92353299-.4220501c-.36168378.0376993-.67439467.2687673-.81664386.6034337-.2236.4887-.43.9961-.6182 1.518-.2578-.4043333-.50386667-.8243333-.7382-1.26-.16371114-.3241998-.49032861-.5341509-.85323627-.548464-.36290766-.014313-.70504581.1692624-.89378157.4795617s-.19439435.6985343-.01478216 1.0142023c.59452374 1.1177838 1.29397056 2.1765137 2.0889 3.1619.19021207.2334192.47529346.3689467.7764.3691z"/><path id="Shape" d="m1.4756 16.0474c.28137797 1.2956677.67345033 2.5647925 1.1719 3.7934.14364627.3524325.4748927.5927751.8545.62.0244.0015.0478.0025.0712.0025.35511791-.0000967.6836129-.1882974.8633-.4946.5231784-.9027122 1.13528847-1.7508625 1.8272-2.5318.36809779-.4120597.33245965-1.0445022-.0796-1.4126s-1.04450221-.3324597-1.4126.0796c-.3184.3574-.62633333.7351667-.9238 1.1333-.1582-.5283-.2979-1.0688-.419-1.6181-.07049764-.3551288-.32744574-.6444147-.671776-.7563213-.34433025-.1119066-.72225534-.0289531-.98806336.2168771-.26580803.2458303-.37797751.6161364-.29326064.9681442z"/><path id="Shape" d="m4.7715 8.3862c-.55040984-.03189753-1.02358591.3859705-1.06.9361-.08413714 1.3516158-.05014147 2.7079962.1016 4.0537.04216775.3697974.28622213.6855787.63344443.819612s.74015371.0641387 1.01985557-.181412c.723458-.6422373 1.51972823-1.1974281 2.3725-1.6542.31870133-.1655241.5241731-.4892316.53831175-.8480753.01413864-.3588438-.1652272-.6977141-.46991729-.8878002-.30469009-.190086-.68791138-.2021952-1.00399446-.0317245-.42255124.2242725-.83295672.4707161-1.2295.7383-.0156-.6265-.0049-1.2564.0342-1.8843.01647489-.26479598-.07295135-.52528577-.24859338-.72412794-.17564204-.19884217-.42310197-.31973702-.68790662-.33607206z"/><path id="Shape" d="m11.7051 7.1338c-.0190547-.26566991-.1448347-.5123141-.3486858-.68374424-.2038512-.17143013-.4684126-.25304642-.7334142-.22625576-.5300882.04606499-1.05680266.12501706-1.5771.2364.1815593-.63801591.39995913-1.26496801.6541-1.8777.1369399-.33005982.08739277-.70810423-.12997746-.99172757-.21737024-.28362334-.56953987-.42973647-.92385-.3833-.35431014.04643648-.65693264.27836775-.79387254.60842757-.51762017 1.25167996-.90304586 2.55401661-1.15 3.8858-.06559353.35186913.06187844.71196345.33424205.94419709.2723636.23223363.64807943.30118756.98515795.18080291.89452906-.32142888 1.82660769-.52673891 2.7734-.6109.5499947-.04765241.957329-.53197742.91-1.082z"/><path id="Shape" d="m15.2354 5.55c.3415638.10500037.7131987.0198026.9749136-.22350012s.3737489-.60774693.2939-.95605001c-.0798489-.34830309-.3394498-.62754952-.6810136-.73254987-.6020628-.1850498-1.2148286-.33329043-1.8349-.4439.413031-.52059851.8631004-1.01070526 1.3467-1.4665.4017872-.37917109.4201211-1.01226284.04095-1.41405s-1.0122628-.4201211-1.41405-.04095c-1.0019562.94523932-1.8767861 2.01671694-2.6025 3.1875-.1851365.29912431-.1994846.6735258-.0377841.9859419.1617005.31241609.4756635.51689013.8267841.5384581 1.0477401.06584312 2.0839756.25570214 3.087.5656z"/><path id="Shape" d="m42.5312 38.8223c-.5810001-.0104545-1.1608314-.0561384-1.7363-.1368.421739-.5498349.8039002-1.1289247 1.1436-1.7329.2704815-.4816475.0992975-1.0913685-.38235-1.36185s-1.0913685-.0992975-1.36185.38235c-.5450689.9705561-1.2166047 1.8644352-1.997 2.6582-.250626.2552161-.3458472.6248632-.2497186.9694033.0961287.3445402.368966.6114969.7155186.7000967 1.2531534.3217163 2.5394464.4967233 3.833.5215h.0176c.5522847.0048325 1.0039175-.4389653 1.00875-.99125.0048324-.5522847-.4389653-1.0039175-.99125-1.00875z"/><path id="Shape" d="m47.1035 34.6147c-.449263.1842801-.9086766.3427712-1.376.4747.1735185-.6577774.3095045-1.3248869.4073-1.9981.0605631-.3576905-.0773442-.7201274-.3603655-.9470839-.2830214-.2269565-.666762-.2828322-1.0027526-.1460088s-.5715277.4448839-.6154819.8049927c-.1624354 1.1152405-.4422899 2.2101892-.8349 3.2666-.1143283.30689-.0711424.650313.1156085.9193419.1867509.269029.4933973.4295664.8208915.4297581.0464062-.0001943.0927459-.0035353.1387-.01 1.1897426-.1690787 2.3536938-.4861688 3.4648-.9439.3362814-.1314766.5755714-.4340241.6260488-.7915479.0504775-.3575239-.0956977-.7144938-.3824347-.933932-.286737-.2194383-.6695-.267262-1.0014141-.1251201z"/><path id="Shape" d="m49.9531 28.9106c-.334.3194-.6758.6187333-1.0254.898-.0381-.6274-.1045-1.2495-.1982-1.8618-.092642-.5369946-.5981721-.9009575-1.1368196-.818468-.5386476.0824894-.9120879.5810593-.8397804 1.121168.1715286 1.1314697.2405088 2.2761199.2061 3.42-.0105462.3650026.1786966.7067338.4936746.8914687.3149779.1847349.7056062.1830985 1.0190254-.0042687 1.0343102-.624082 1.9950912-1.3625972 2.8642-2.2016.3858112-.3843061.3931987-1.0066675.0166185-1.4000233-.3765802-.3933559-.9986727-.4130829-1.3994185-.0443767z"/><path id="Shape" d="m52.4727 21.9419c-.2336515-.1255242-.5076295-.1529796-.7615425-.0763142-.253913.0766653-.4669158.2511575-.5920575.4850142-.2343333.4354667-.4804.8554667-.7382 1.26-.1885-.5219-.3946-1.0293-.6182-1.518-.1422492-.3346664-.4549601-.5657344-.8166439-.6034337-.3616837-.0376994-.7153248.1239129-.9235329.4220501-.2082082.2981372-.2381615.6858011-.0782232 1.0123836.4599093 1.0158313.828886 2.0704234 1.1026 3.1514.0935705.3660945.385504.6481833.7545918.7291453.3690877.080962.7522916-.0530307.9905082-.3463453.7949401-.9854497 1.4943872-2.044247 2.0889-3.1621.2610313-.4865718.0782937-1.0926232-.4082-1.3538z"/><path id="Shape" d="m49.5635 19.9683c.1796871.3063026.5081821.4945033.8633.4946.0234 0 .0468-.001.0712-.0025.3796073-.0272249.7108537-.2675675.8545-.62.4984497-1.2286075.890522-2.4977323 1.1719-3.7934.0847169-.3520078-.0274526-.7223139-.2932606-.9681442-.2658081-.2458302-.6437331-.3287837-.9880634-.2168771s-.6012784.4011925-.671776.7563213c-.1211.5493-.2608 1.09-.419 1.6181-.2968-.3974-.6047333-.7751667-.9238-1.1333-.3680978-.4120596-1.0005403-.4476977-1.4126-.0796-.4120596.3680978-.4476978 1.0005403-.0796 1.4126.6919334.7810637 1.3040441 1.6293489 1.8272 2.5322z"/><path id="Shape" d="m46.1611 12.36c.8526372.4568298 1.6487722 1.0120535 2.3721 1.6543.2795147.2461461.672732.3164026 1.02019.1822783s.5914809-.4503656.63311-.8204783c.1517415-1.3457038.1857371-2.7020842.1016-4.0537-.0196686-.35844772-.2299633-.67884985-.5509999-.8394958s-.7035504-.13688376-1.0022364.06226006c-.2986861.19914383-.4677095.54310963-.4428637.90123574.0391.6279.05 1.2578.0342 1.8843-.3967058-.2675991-.8072785-.5140429-1.23-.7383-.4874241-.2531537-1.0877956-.0658055-1.3447398.4196311-.2569442.4854367-.0742799 1.0872498.4091398 1.3479689z"/><path id="Shape" d="m43.2051 8.2158c.9467923.08416109 1.8788709.28947112 2.7734.6109.3370472.11984593.7124332.05068305.9846368-.18141413s.3998297-.59183279.3347632-.94358587c-.2469541-1.33178339-.6323798-2.63412004-1.15-3.8858-.1369399-.33009554-.4395815-.56205983-.7939225-.60851417-.3543411-.04645434-.7065489.09965879-.92395.3833-.2174012.2836412-.2669674.66171863-.1300275.99181417.2541336.61266669.4725333 1.23955181.6541 1.8775-.5202973-.11138294-1.0470118-.19033501-1.5771-.2364-.265113-.02733523-.52997.0540836-.7339483.22562065s-.3296144.41850632-.3481517.68437935c-.0474425.55016897.36004 1.03465323.9102 1.0822z"/><path id="Shape" d="m37.5146 4.8877c.077749.25370345.2532095.46606753.4876961.59027042.2344867.12420289.508744.15004532.7623039.07182958 1.0030326-.30983003 2.039268-.49962189 3.087-.5654.3511206-.02156797.6650836-.22604201.8267841-.5384581.1617005-.3124161.1473524-.68681759-.0377841-.9859419-.7257139-1.17078306-1.6005438-2.24226068-2.6025-3.1875-.4017872-.3791711-1.0348789-.36083716-1.41405.04095s-.3608372 1.03487891.04095 1.41405c.4835923.45573066.9336615.94577038 1.3467 1.4663-.6200714.11060957-1.2328372.2588502-1.8349.4439-.2536127.07788919-.4658796.25336637-.5900758.48780497s-.1501413.5086216-.0721242.76219503z"/><path id="Shape" d="m40 47h-8v-8c1.1040441-.0012675 1.9987325-.8959559 2-2v-2c-.0012675-1.1040441-.8959559-1.9987325-2-2h-2v-4.63l4.6279 2.4164c.6303046.3321331 1.394977.2748837 1.9688-.1474.5734363-.4146865.8597386-1.1204044.7373-1.8174l-1.4561-8.4248 6.166-5.9688c.5104745-.4938773.6948945-1.2354758.475208-1.9109288s-.8050736-1.166677-1.508408-1.2657712l-8.5253-1.23-3.8125-7.67c-.3166353-.6338793-.9643375-1.03435319-1.6729-1.03435319s-1.3562647.40047389-1.6729 1.03435319l-3.8125 7.67-8.5253 1.23c-.7034136.0991665-1.2888385.5904879-1.5085211 1.2660352s-.0352206 1.4172297.4753211 1.9111648l6.166 5.9683-1.4561 8.425c-.1183499.6993584.1700175 1.4053482.7441521 1.8218556s1.3347605.4715125 1.9628479.1419444l4.627-2.4156v4.63h-2c-1.1040441.0012675-1.9987325.8959559-2 2v2c.0012675 1.1040441.8959559 1.9987325 2 2v8h-8c-1.1040441.0012675-1.9987325.8959559-2 2v2c.0012675 1.1040441.8959559 1.9987325 2 2v5c.0012675 1.1040441.8959559 1.9987325 2 2h22c1.1040441-.0012675 1.9987325-.8959559 2-2v-5c1.1040441-.0012675 1.9987325-.8959559 2-2v-2c-.0012675-1.1040441-.8959559-1.9987325-2-2zm-21.3164-18.11 1.4219-8.23c.1043126-.6054851-.0978953-1.2233424-.54-1.65l-6.0127-5.82 8.3164-1.2c.6070032-.086689 1.1325036-.4664643 1.4053-1.0156l3.7255-7.4959 3.7246 7.4946c.2728834.5497174.7987639.9299833 1.4063 1.0169l8.3164 1.2-6.0118 5.8189c-.4428547.4271761-.645447 1.0459251-.541 1.6523l1.4219 8.228-7.4512-3.8902c-.5426383-.2825473-1.1890885-.2821739-1.7314.001zm7.3164-1.5646 1-.5222 1 .5222v5.6746h-2zm-4 7.6746h10l.001 2h-10.001zm2 4h6v8h-6zm14.001 19h-22.001v-5h22zm.999-7h-25v-2h26l.001 2z"/></g></g></svg>