<?xml version="1.0" encoding="UTF-8" standalone="no"?><!-- Generator: Gravit.io --><svg xmlns="http://www.w3.org/2000/svg" xmlns:xlink="http://www.w3.org/1999/xlink" style="isolation:isolate" viewBox="0 0 65 50" width="65pt" height="50pt"><defs><clipPath id="_clipPath_qz7KiPxiRAPHXrPOHjR2JjZNYBWFEI71"><rect width="65" height="50"/></clipPath></defs><g clip-path="url(#_clipPath_qz7KiPxiRAPHXrPOHjR2JjZNYBWFEI71)"><path d=" M 26.55 16.393 C 26.55 16.393 23.331 18.319 16.255 17.712 C 9.178 17.106 0.87 15.66 0.512 24.225 C 0.032 35.723 14.302 44.89 23.912 47.549 C 34.929 50.598 47.659 48.752 55.846 40.277 C 64.722 31.087 68.614 16.623 58.501 6.652 C 54.99 3.189 50.143 0.989 45.191 1.078 C 39.387 1.182 36.056 4.618 32.799 8.999 C 31.087 11.3 29 14.83 26.55 16.393 Z " fill="rgb(255,225,33)"/><path d=" M 33.268 15.152 C 29.425 15.152 26.298 12.026 26.298 8.183 C 26.298 4.34 29.425 1.213 33.268 1.213 C 37.112 1.213 40.239 4.339 40.239 8.183 C 40.238 12.026 37.111 15.152 33.268 15.152 Z  M 33.268 3.214 C 30.527 3.214 28.298 5.443 28.298 8.184 C 28.298 10.924 30.527 13.153 33.268 13.153 C 36.009 13.153 38.239 10.924 38.239 8.184 C 38.238 5.443 36.008 3.214 33.268 3.214 Z " fill="rgb(40,63,136)"/><path d=" M 38.476 48.07 L 27.947 48.07 L 26.892 35.909 L 23.195 35.376 L 23.195 24.592 C 23.195 20.803 26.278 17.72 30.067 17.72 L 36.172 17.72 C 39.961 17.72 43.043 20.803 43.043 24.592 L 43.043 35.378 L 39.3 35.908 L 38.476 48.07 Z  M 29.781 46.07 L 36.607 46.07 L 37.415 34.156 L 41.044 33.641 L 41.044 24.591 C 41.044 21.904 38.859 19.719 36.173 19.719 L 30.068 19.719 C 27.382 19.719 25.196 21.905 25.196 24.591 L 25.196 33.643 L 28.748 34.155 L 29.781 46.07 Z " fill="rgb(40,63,136)"/></g></svg>