<?xml version="1.0" encoding="utf-8"?>
<!-- Generator: Adobe Illustrator 16.0.0, SVG Export Plug-In . SVG Version: 6.00 Build 0)  -->
<!DOCTYPE svg PUBLIC "-//W3C//DTD SVG 1.1//EN" "http://www.w3.org/Graphics/SVG/1.1/DTD/svg11.dtd">
<svg xmlns="http://www.w3.org/2000/svg" xmlns:xlink="http://www.w3.org/1999/xlink" version="1.1" x="0px" y="0px" width="40px" height="40px" viewBox="0 0 40 40" enable-background="new 0 0 40 40" xml:space="preserve">
<g id="Layer_2">
	<circle fill="#eff9ff" cx="20" cy="20" r="18.5"/>
</g>
<g id="Layer_1">
	<g>
		<path d="M31,17v13H9.003L8.992,17.471L11,16.154l-0.549-0.836l-2.018,1.323c-0.189,0.131-0.41,0.336-0.431,0.779v12.891    c0,0.381,0.31,0.689,0.689,0.689h22.62C31.691,31,32,30.691,32,30.311V17H31L31,17"/>
		<path d="M10,18.84V8.689C10,8.309,10.31,8,10.689,8h16.62C27.69,8,28,8.309,28,8.689v1.478c0,0.276-0.224,0.5-0.5,0.5    s-0.5-0.224-0.5-0.5V9H11v9.84H10z"/>
		<path d="M23.958,15.03c-0.167,0-0.325-0.084-0.418-0.226c-0.105-0.16-0.109-0.365-0.012-0.53l0.809-1.358    c0.039-0.065,0.092-0.12,0.154-0.162l5.819-3.832c0.149-0.098,0.335-0.107,0.485-0.036c-0.029-0.185,0.046-0.378,0.21-0.491    l0.58-0.401c0.109-0.077,0.246-0.108,0.379-0.08c0.133,0.025,0.248,0.103,0.322,0.215l0.802,1.215    c0.073,0.111,0.1,0.246,0.072,0.376c-0.026,0.13-0.104,0.244-0.215,0.317l-1.314,0.863c-0.117,0.077-0.254,0.099-0.382,0.07    c-0.024,0.128-0.099,0.247-0.216,0.324l-5.247,3.456c-0.064,0.042-0.137,0.069-0.213,0.079l-1.554,0.196    C24,15.029,23.979,15.03,23.958,15.03z M25.138,13.526l-0.227,0.379l0.423-0.053l5.149-3.392c0.063-0.042,0.133-0.067,0.203-0.078    l-0.238-0.354L25.138,13.526z M31.153,9.287l0.343,0.507l0.482-0.317l-0.244-0.37l-0.16,0.11    C31.447,9.306,31.295,9.328,31.153,9.287z"/>
		<g>
			<polygon points="8.176,30.354 7.824,29.751 19.731,22.798 31.568,29.751 31.213,30.354 19.73,23.608    "/>
			<path d="M21.594,24.635c-0.104,0-0.208-0.046-0.276-0.136c-0.119-0.152-0.091-0.372,0.063-0.49l9.406-7.286     c0.151-0.117,0.372-0.09,0.49,0.063c0.119,0.153,0.091,0.373-0.063,0.491l-9.406,7.285     C21.744,24.611,21.669,24.635,21.594,24.635z"/>
			<path d="M17.904,24.656c-0.077,0-0.154-0.024-0.219-0.077l-7.367-5.914C10.101,18.532,9.974,18.3,9.974,18     c0-0.193,0.157-0.35,0.35-0.35s0.35,0.157,0.35,0.35c0,0.065,0.009,0.071,0.049,0.096l7.4,5.938     c0.15,0.12,0.175,0.341,0.054,0.491C18.108,24.612,18.006,24.656,17.904,24.656z"/>
		</g>
		<path d="M15.138,18.545c-0.117,0-0.229-0.015-0.338-0.046c-0.373-0.105-0.858-0.44-1.061-1.438    c-0.355-1.756,0.357-4.701,1.811-5.865c0.25-0.201,1.014-0.814,1.633-0.418c1.022,0.654,0.354,3.706,0.125,4.626    c-0.047,0.188-0.24,0.297-0.424,0.255c-0.188-0.047-0.302-0.237-0.255-0.424c0.404-1.624,0.576-3.612,0.177-3.867    c-0.088-0.059-0.358,0.005-0.817,0.374c-1.21,0.97-1.871,3.659-1.563,5.18c0.06,0.294,0.212,0.803,0.565,0.903    c0.203,0.055,0.803,0.055,1.995-1.219c0.318-0.34,0.631-0.737,0.933-1.121c0.667-0.847,1.193-1.517,1.739-1.578    c0.344-0.042,0.553,0.088,0.664,0.203c0.319,0.328,0.24,0.882,0.165,1.419c-0.024,0.171-0.062,0.434-0.056,0.583    c0.235-0.088,0.51-0.328,0.756-0.542c0.502-0.437,1.127-0.98,1.612-0.478c0.447,0.467,0.554,0.578,1.389-0.034    c0.155-0.114,0.375-0.081,0.489,0.075c0.114,0.156,0.081,0.375-0.075,0.489c-1.136,0.832-1.631,0.661-2.308-0.046    c-0.079,0.025-0.436,0.335-0.648,0.521c-0.35,0.305-0.711,0.619-1.075,0.709c-0.315,0.077-0.512-0.021-0.62-0.118    c-0.297-0.268-0.229-0.749-0.157-1.259c0.033-0.236,0.102-0.724,0.027-0.832c-0.001,0.001-0.011,0-0.031,0    c-0.013,0-0.031,0-0.053,0.003c-0.255,0.029-0.84,0.772-1.268,1.315c-0.311,0.396-0.633,0.805-0.971,1.167    C16.589,18.056,15.797,18.545,15.138,18.545z"/>
	</g>
</g>
</svg>
