<?xml version="1.0" encoding="UTF-8" standalone="no"?><!-- Generator: Gravit.io --><svg xmlns="http://www.w3.org/2000/svg" xmlns:xlink="http://www.w3.org/1999/xlink" style="isolation:isolate" viewBox="0 0 65 50" width="65pt" height="50pt"><defs><clipPath id="_clipPath_R8knAcl9gLT0NvmyMEfWpIn6qn9JJWBz"><rect width="65" height="50"/></clipPath></defs><g clip-path="url(#_clipPath_R8knAcl9gLT0NvmyMEfWpIn6qn9JJWBz)"><path d=" M 0.524 30.074 C 0.143 36.971 4.292 44.073 10.714 46.763 C 15.763 48.877 21.067 49.611 26.512 49.457 C 34.631 49.228 41.913 46.842 48.722 42.466 C 58.081 36.45 68.22 23.046 63.144 11.465 C 60.324 5.034 53.767 -0.66 46.357 0.735 C 44.349 1.113 41.98 1.885 40.233 2.962 C 33.347 7.205 29.804 14.222 23.236 16.9 C 16.654 19.582 13.487 18.553 8.077 21.186 C 3.049 23.635 0.692 27.043 0.524 30.074 Z " fill="rgb(255,225,33)"/><g><rect x="25" y="16.667" width="1.667" height="1.667" transform="matrix(1,0,0,1,0,0)" fill="rgb(40,63,136)"/><rect x="25" y="20" width="1.667" height="1.667" transform="matrix(1,0,0,1,0,0)" fill="rgb(40,63,136)"/><rect x="25" y="23.333" width="1.667" height="1.667" transform="matrix(1,0,0,1,0,0)" fill="rgb(40,63,136)"/><rect x="25" y="26.667" width="1.667" height="1.667" transform="matrix(1,0,0,1,0,0)" fill="rgb(40,63,136)"/><rect x="28.333" y="16.667" width="1.667" height="1.667" transform="matrix(1,0,0,1,0,0)" fill="rgb(40,63,136)"/><rect x="28.333" y="20" width="1.667" height="1.667" transform="matrix(1,0,0,1,0,0)" fill="rgb(40,63,136)"/><rect x="28.333" y="23.333" width="1.667" height="1.667" transform="matrix(1,0,0,1,0,0)" fill="rgb(40,63,136)"/><rect x="28.333" y="26.667" width="1.667" height="1.667" transform="matrix(1,0,0,1,0,0)" fill="rgb(40,63,136)"/><rect x="31.667" y="16.667" width="1.667" height="1.667" transform="matrix(1,0,0,1,0,0)" fill="rgb(40,63,136)"/><rect x="31.667" y="20" width="1.667" height="1.667" transform="matrix(1,0,0,1,0,0)" fill="rgb(40,63,136)"/><rect x="31.667" y="23.333" width="1.667" height="1.667" transform="matrix(1,0,0,1,0,0)" fill="rgb(40,63,136)"/><rect x="31.667" y="26.667" width="1.667" height="1.667" transform="matrix(1,0,0,1,0,0)" fill="rgb(40,63,136)"/><rect x="35" y="16.667" width="1.667" height="1.667" transform="matrix(1,0,0,1,0,0)" fill="rgb(40,63,136)"/><rect x="28.333" y="13.333" width="1.667" height="1.667" transform="matrix(1,0,0,1,0,0)" fill="rgb(40,63,136)"/><rect x="31.667" y="13.333" width="1.667" height="1.667" transform="matrix(1,0,0,1,0,0)" fill="rgb(40,63,136)"/><rect x="35" y="13.333" width="1.667" height="1.667" transform="matrix(1,0,0,1,0,0)" fill="rgb(40,63,136)"/><rect x="35" y="20" width="1.667" height="1.667" transform="matrix(1,0,0,1,0,0)" fill="rgb(40,63,136)"/><rect x="35" y="23.333" width="1.667" height="1.667" transform="matrix(1,0,0,1,0,0)" fill="rgb(40,63,136)"/><rect x="35" y="26.667" width="1.667" height="1.667" transform="matrix(1,0,0,1,0,0)" fill="rgb(40,63,136)"/><rect x="38.333" y="16.667" width="1.667" height="1.667" transform="matrix(1,0,0,1,0,0)" fill="rgb(40,63,136)"/><rect x="38.333" y="20" width="1.667" height="1.667" transform="matrix(1,0,0,1,0,0)" fill="rgb(40,63,136)"/><rect x="38.333" y="23.333" width="1.667" height="1.667" transform="matrix(1,0,0,1,0,0)" fill="rgb(40,63,136)"/><rect x="38.333" y="26.667" width="1.667" height="1.667" transform="matrix(1,0,0,1,0,0)" fill="rgb(40,63,136)"/><g><g><path d=" M 56.668 12.5 C 56.667 12.5 56.667 12.5 56.667 12.5 L 44.167 12.5 L 44.167 0.833 C 44.167 0.373 43.794 0 43.334 0 C 43.334 0 43.334 0 43.333 0 L 21.667 0 C 21.207 0 20.834 0.372 20.833 0.832 C 20.833 0.833 20.833 0.833 20.833 0.833 L 20.833 12.5 L 8.333 12.5 C 7.873 12.5 7.5 12.872 7.5 13.332 C 7.5 13.333 7.5 13.333 7.5 13.333 L 7.5 43.333 C 7.5 43.793 7.872 44.166 8.332 44.167 C 8.333 44.167 8.333 44.167 8.333 44.167 L 10.075 44.167 C 10.027 44.442 10.002 44.721 10 45 L 10 49.167 C 10 49.627 10.372 50 10.832 50 C 10.833 50 10.833 50 10.833 50 L 54.167 50 C 54.627 50 55 49.628 55 49.168 C 55 49.167 55 49.167 55 49.167 L 55 45 C 54.998 44.721 54.973 44.442 54.925 44.167 L 56.667 44.167 C 57.127 44.167 57.5 43.794 57.5 43.334 C 57.5 43.334 57.5 43.334 57.5 43.333 L 57.5 13.333 C 57.5 12.873 57.128 12.5 56.668 12.5 Z  M 43.333 35.833 C 43.333 36.754 42.587 37.5 41.667 37.5 C 40.746 37.5 40 36.754 40 35.833 C 40 34.913 40.746 34.167 41.667 34.167 C 42.587 34.168 43.332 34.913 43.333 35.833 Z  M 23.333 34.167 C 24.254 34.167 25 34.913 25 35.833 C 25 36.754 24.254 37.5 23.333 37.5 C 22.413 37.5 21.667 36.754 21.667 35.833 C 21.668 34.913 22.413 34.168 23.333 34.167 Z  M 18.333 48.333 L 11.667 48.333 L 11.667 45 C 11.667 43.159 13.159 41.667 15 41.667 C 16.841 41.667 18.333 43.159 18.333 45 L 18.333 48.333 Z  M 13.333 38.333 C 13.333 37.413 14.079 36.667 15 36.667 C 15.921 36.667 16.667 37.413 16.667 38.333 C 16.667 39.254 15.921 40 15 40 C 14.08 39.999 13.334 39.253 13.333 38.333 Z  M 18.46 41.398 C 18.145 41.095 17.793 40.834 17.411 40.622 C 18.682 39.291 18.633 37.181 17.302 35.91 C 15.97 34.639 13.86 34.688 12.589 36.019 C 11.359 37.307 11.359 39.334 12.589 40.622 C 11.793 41.064 11.133 41.713 10.676 42.5 L 9.167 42.5 L 9.167 14.167 L 20.833 14.167 L 20.833 33.652 C 19.689 34.936 19.728 36.885 20.922 38.122 C 19.672 38.814 18.776 40.006 18.46 41.398 Z  M 26.667 48.333 L 20 48.333 L 20 42.5 C 20 40.659 21.492 39.167 23.333 39.167 C 25.174 39.167 26.667 40.659 26.667 42.5 L 26.667 48.333 Z  M 36.667 48.333 L 28.333 48.333 L 28.333 42.5 C 28.333 40.199 30.199 38.333 32.5 38.333 C 34.801 38.333 36.667 40.199 36.667 42.5 L 36.667 48.333 Z  M 30 34.167 C 30 32.786 31.119 31.667 32.5 31.667 C 33.881 31.667 35 32.786 35 34.167 C 35 35.547 33.881 36.667 32.5 36.667 C 31.12 36.665 30.001 35.547 30 34.167 Z  M 37.575 39.635 C 37.017 38.651 36.187 37.85 35.184 37.327 C 36.944 35.844 37.169 33.215 35.687 31.455 C 34.204 29.695 31.576 29.47 29.816 30.953 C 28.056 32.435 27.831 35.064 29.313 36.824 C 29.466 37.005 29.634 37.174 29.816 37.327 C 28.813 37.85 27.983 38.651 27.425 39.635 C 26.987 39.01 26.412 38.493 25.745 38.122 C 27.022 36.816 26.998 34.72 25.691 33.443 C 24.85 32.62 23.635 32.306 22.5 32.618 L 22.5 1.667 L 42.5 1.667 L 42.5 32.618 C 42.228 32.543 41.948 32.504 41.667 32.5 C 39.831 32.495 38.338 33.98 38.333 35.816 C 38.331 36.675 38.662 37.502 39.255 38.122 C 38.588 38.493 38.013 39.01 37.575 39.635 Z  M 45 45 L 45 48.333 L 38.333 48.333 L 38.333 42.5 C 38.333 40.659 39.826 39.167 41.667 39.167 C 43.508 39.167 45 40.659 45 42.5 L 45 45 Z  M 53.333 48.333 L 46.667 48.333 L 46.667 45 C 46.667 43.159 48.159 41.667 50 41.667 C 51.841 41.667 53.333 43.159 53.333 45 L 53.333 48.333 Z  M 48.333 38.333 C 48.333 37.413 49.079 36.667 50 36.667 C 50.921 36.667 51.667 37.413 51.667 38.333 C 51.667 39.254 50.921 40 50 40 C 49.08 39.999 48.334 39.253 48.333 38.333 Z  M 55.833 42.5 L 54.324 42.5 C 53.867 41.713 53.207 41.064 52.411 40.622 C 53.682 39.291 53.633 37.181 52.302 35.91 C 50.97 34.639 48.86 34.688 47.589 36.019 C 46.359 37.307 46.359 39.334 47.589 40.622 C 47.207 40.834 46.855 41.095 46.54 41.398 C 46.224 40.005 45.328 38.814 44.078 38.122 C 45.272 36.885 45.311 34.936 44.167 33.652 L 44.167 14.167 L 55.833 14.167 L 55.833 42.5 L 55.833 42.5 Z " fill="rgb(40,63,136)"/></g></g><g><g><rect x="46.667" y="19.167" width="1.667" height="13.333" transform="matrix(1,0,0,1,0,0)" fill="rgb(40,63,136)"/></g></g><g><g><rect x="51.667" y="19.167" width="1.667" height="13.333" transform="matrix(1,0,0,1,0,0)" fill="rgb(40,63,136)"/></g></g><g><g><rect x="11.667" y="19.167" width="1.667" height="13.333" transform="matrix(1,0,0,1,0,0)" fill="rgb(40,63,136)"/></g></g><g><g><rect x="16.667" y="19.167" width="1.667" height="13.333" transform="matrix(1,0,0,1,0,0)" fill="rgb(40,63,136)"/></g></g><g><g><path d=" M 37.501 3.333 C 37.501 3.333 37.5 3.333 37.5 3.333 L 27.5 3.333 C 27.04 3.333 26.667 3.706 26.667 4.166 C 26.667 4.166 26.667 4.166 26.667 4.167 L 26.667 10.833 C 26.666 11.293 27.039 11.666 27.499 11.667 C 27.499 11.667 27.5 11.667 27.5 11.667 L 37.5 11.667 C 37.96 11.667 38.333 11.294 38.333 10.834 C 38.333 10.834 38.333 10.834 38.333 10.833 L 38.333 4.167 C 38.334 3.707 37.961 3.334 37.501 3.333 Z  M 36.667 10 L 28.333 10 L 28.333 5 L 36.667 5 L 36.667 10 Z " fill="rgb(40,63,136)"/></g></g></g></g></svg>