<?xml version="1.0" encoding="UTF-8" standalone="no"?><!-- Generator: Gravit.io --><svg xmlns="http://www.w3.org/2000/svg" xmlns:xlink="http://www.w3.org/1999/xlink" style="isolation:isolate" viewBox="0 0 65 50" width="65pt" height="50pt"><defs><clipPath id="_clipPath_k4v8yWagO4a8QQb1mK9JY65CJt5Q1WUt"><rect width="65" height="50"/></clipPath></defs><g clip-path="url(#_clipPath_k4v8yWagO4a8QQb1mK9JY65CJt5Q1WUt)"><path d=" M 1.175 30.146 C 0.118 35.734 4.009 42.678 8.58 45.393 C 13.474 48.302 21.33 49.553 26.931 49.394 C 33.963 49.198 41.281 47.18 47.245 43.461 C 54.231 39.104 60.641 33.252 62.95 25.097 C 64.73 18.812 64.607 9.971 59.734 4.997 C 57.505 2.722 52.886 0.5 49.632 0.596 C 46.789 0.679 42.996 1.696 40.567 3.193 C 33.724 7.408 30.203 14.382 23.677 17.043 C 21.885 17.773 19.539 17.811 17.645 18.286 C 15.456 18.836 13.296 19.518 11.222 20.411 C 7.528 22.001 3.448 24.393 1.759 28.242 C 1.492 28.853 1.3 29.49 1.175 30.146 Z " fill="rgb(255,225,33)"/><path d=" M 16.242 4.097 L 14.693 4.097 L 14.693 5.646 L 16.242 5.646 L 16.242 4.097 L 16.242 4.097 Z  M 13.146 4.097 L 11.597 4.097 L 11.597 5.646 L 13.146 5.646 L 13.146 4.097 L 13.146 4.097 Z  M 19.339 4.097 L 17.791 4.097 L 17.791 5.646 L 19.339 5.646 L 19.339 4.097 L 19.339 4.097 Z  M 27.08 19.58 L 11.597 19.58 L 11.597 10.291 L 27.08 10.291 L 27.08 19.58 L 27.08 19.58 Z  M 25.532 11.839 L 13.146 11.839 L 13.146 18.032 L 25.533 18.032 L 25.533 11.839 L 25.532 11.839 Z  M 30.178 10.291 L 28.629 10.291 L 28.629 11.839 L 30.178 11.839 L 30.178 10.291 L 30.178 10.291 Z  M 31.726 11.839 L 41.016 11.839 L 41.016 10.291 L 31.726 10.291 L 31.726 11.839 L 31.726 11.839 Z  M 28.629 14.936 L 41.016 14.936 L 41.016 13.388 L 28.629 13.388 L 28.629 14.936 L 28.629 14.936 Z  M 28.629 18.032 L 41.016 18.032 L 41.016 16.483 L 28.629 16.483 L 28.629 18.032 L 28.629 18.032 Z  M 56.5 29.646 C 56.5 40.317 47.817 49 37.146 49 C 27.879 49 20.027 42.523 18.201 33.516 L 10.823 33.516 C 9.543 33.516 8.501 32.475 8.501 31.194 L 8.501 3.322 C 8.5 2.043 9.542 1 10.822 1 L 41.791 1 C 43.071 1 44.112 2.043 44.112 3.322 L 44.112 11.602 C 51.541 14.471 56.5 21.645 56.5 29.646 Z  M 44.112 13.268 L 44.112 15.619 C 44.753 16.798 45.298 18.136 45.749 19.581 L 51.818 19.581 C 49.933 16.833 47.286 14.617 44.112 13.268 L 44.112 13.268 L 44.112 13.268 Z  M 44.119 39.709 L 30.155 39.709 C 31.719 44.393 34.318 47.451 37.145 47.451 C 39.991 47.451 42.563 44.349 44.119 39.709 Z  M 44.586 38.161 C 45.211 35.83 45.592 33.195 45.651 30.419 L 44.112 30.419 L 44.112 31.193 C 44.112 32.474 43.071 33.515 41.791 33.515 L 28.847 33.515 C 29.026 35.162 29.314 36.722 29.698 38.161 L 44.586 38.161 L 44.586 38.161 Z  M 44.112 28.87 L 45.641 28.87 C 45.568 25.512 45.036 22.291 44.112 19.546 L 44.112 28.87 L 44.112 28.87 Z  M 46.217 38.161 L 52.779 38.161 C 54.048 35.844 54.813 33.214 54.932 30.419 L 47.2 30.419 C 47.146 33.203 46.801 35.819 46.217 38.161 L 46.217 38.161 L 46.217 38.161 Z  M 54.922 28.87 C 54.8 26.106 54.041 23.471 52.764 21.129 L 46.184 21.129 C 46.787 23.526 47.134 26.158 47.191 28.87 L 54.922 28.87 L 54.922 28.87 Z  M 10.049 3.322 L 10.049 7.193 L 42.564 7.193 L 42.564 3.322 C 42.564 2.895 42.219 2.549 41.792 2.549 L 10.822 2.549 C 10.396 2.549 10.049 2.896 10.049 3.322 Z  M 10.822 31.967 L 41.791 31.967 C 42.219 31.967 42.563 31.621 42.563 31.194 L 42.563 8.742 L 10.049 8.742 L 10.049 31.193 C 10.049 31.621 10.396 31.967 10.822 31.967 Z  M 19.783 33.516 C 20.148 35.171 20.732 36.729 21.508 38.162 L 28.098 38.162 C 27.733 36.714 27.461 35.157 27.29 33.516 L 19.783 33.516 L 19.783 33.516 Z  M 32.513 46.843 C 30.871 45.222 29.493 42.759 28.535 39.709 L 22.444 39.709 C 24.818 43.188 28.378 45.741 32.513 46.843 L 32.513 46.843 L 32.513 46.843 Z  M 51.825 39.709 L 45.787 39.709 C 44.849 42.729 43.491 45.184 41.861 46.813 C 45.961 45.687 49.474 43.127 51.825 39.709 Z  M 40.863 25.34 L 11.946 25.34 L 11.946 23.84 L 40.863 23.84 L 40.863 25.34 L 40.863 25.34 Z  M 32.5 29.174 L 11.946 29.174 L 11.946 27.674 L 32.5 27.674 L 32.5 29.174 L 32.5 29.174 Z  M 40.388 4.804 C 40.388 5.356 39.94 5.804 39.388 5.804 C 38.835 5.804 38.388 5.356 38.388 4.804 C 38.388 4.252 38.835 3.804 39.388 3.804 C 39.939 3.804 40.388 4.251 40.388 4.804 Z " fill="rgb(40,63,136)"/></g></svg>