<svg width="25" height="25" viewBox="0 0 25 25" fill="none" xmlns="http://www.w3.org/2000/svg">
<path d="M14.4844 2.57016H6.48438C5.95394 2.57016 5.44523 2.78087 5.07016 3.15595C4.69509 3.53102 4.48438 4.03973 4.48438 4.57016V20.5702C4.48438 21.1006 4.69509 21.6093 5.07016 21.9844C5.44523 22.3594 5.95394 22.5702 6.48438 22.5702H18.4844C19.0148 22.5702 19.5235 22.3594 19.8986 21.9844C20.2737 21.6093 20.4844 21.1006 20.4844 20.5702V8.57016L14.4844 2.57016Z" stroke="white" stroke-width="2" stroke-linecap="round" stroke-linejoin="round"/>
<path d="M14.4844 2.57016V8.57016H20.4844" stroke="white" stroke-width="2" stroke-linecap="round" stroke-linejoin="round"/>
<path d="M16.4844 13.5702H8.48438" stroke="white" stroke-width="2" stroke-linecap="round" stroke-linejoin="round"/>
<path d="M16.4844 17.5702H8.48438" stroke="white" stroke-width="2" stroke-linecap="round" stroke-linejoin="round"/>
<path d="M10.4844 9.57016H9.48438H8.48438" stroke="white" stroke-width="2" stroke-linecap="round" stroke-linejoin="round"/>
</svg>
