<?xml version="1.0" standalone="yes"?>
<svg xmlns="http://www.w3.org/2000/svg" width="512" height="512">
<path style="fill:#ffffff; stroke:none;" d="M0 0L0 234L1 234C1.06015 143.174 72.7504 57.4208 152 21.6944C176.983 10.4317 206.34 1.01822 234 1L212 0L165 0L0 0z"/>
<path style="fill:#010101; stroke:none;" d="M234 0.424377C202.148 4.60855 172.17 11.1446 143 25.2585C68.6415 61.2375 13.9043 135.052 2.28549 217C-15.5054 342.48 60.5566 467.195 184 502.421C208.781 509.493 238.144 515.427 264 511.7C287.481 508.315 303.003 483.774 298.334 461C295.859 448.927 287.636 441.574 282.273 431C274.167 415.015 277.531 395.81 290.171 383.171C312.653 360.688 353.463 371.876 382 369.91C423.257 367.069 461.791 344.139 485.848 311C529.634 250.684 514.922 164.898 474.279 107C422.927 33.8464 323.546 -11.3386 234 0.424377z"/>
<path style="fill:#ffffff; stroke:none;" d="M280 0L280 1C363.471 1.05502 452.43 59.5549 489.247 133C500.621 155.69 510.929 182.239 511 208L512 208L512 0L280 0M184 57.5941C129.518 59.6471 131.639 144.4 186 141.625C240.037 138.866 238.257 55.5496 184 57.5941M326 57.5941C271.762 59.6379 273.95 144.384 328 141.625C382.311 138.852 380.525 55.5395 326 57.5941M96 171.429C88.768 172.433 82.0936 174.413 76 178.52C38.9129 203.517 63.2122 259.952 106 254.816C158.339 248.532 147.803 164.241 96 171.429M409 171.429C400.844 172.558 393.723 174.892 387.001 179.785C351.411 205.694 377.902 259.749 419 254.816C471.191 248.55 460.677 164.275 409 171.429M511 244C509.631 310.319 444.134 363.817 382 369.83C353.39 372.599 311.687 359.968 289.289 383.171C276.871 396.035 274.226 416.132 282.273 432C287.803 442.904 296.313 450.423 298.536 463C302.262 484.078 286.437 507.787 265 511L265 512L512 512L512 323L512 269L511 244M0 278L0 512L234 512L234 511C146.766 510.942 59.5029 442.648 24.3086 366C15.5755 346.981 9.02703 327.469 4.66127 307C2.7424 298.003 3.48414 286.3 0 278z"/>
</svg>
