<svg id="Layer_1" data-name="Layer 1" xmlns="http://www.w3.org/2000/svg" width="35" height="35" viewBox="0 0 35 35">
  <g>
    <path d="M20.09771,35h-5.118a3.23943,3.23943,0,0,1-3.498-3.41448c0-.41893-.06641-1.8232-.92381-2.29438-.23828-.13232-.96678-.34814-2.55659.45751A3.30213,3.30213,0,0,1,3.4926,28.40786c-.42284-.70506-.96384-1.69577-1.44918-2.58588-.37109-.68065-.707-1.2988-.92284-1.65866C.11572,22.491.54345,20.75177,2.26509,19.513c.80955-.583,1.57223-1.49069,1.46286-2.09761-.13867-.77781-1.01756-1.52291-1.65914-2.06734-.14746-.12548-.28515-.24218-.40625-.35057a3.21324,3.21324,0,0,1-.35741-4.28507l.22949-.41015c.958-1.71236,1.89156-3.37,2.22358-3.90274C4.47891,5.24674,6.139,4.3,8.45832,5.41764c1.455.70311,1.79683.43309,1.97944.28905a2.698,2.698,0,0,0,1.21287-2.37495A3.55066,3.55066,0,0,1,12.76193.73366,2.85993,2.85993,0,0,1,14.717.00125h5.38074A3.14918,3.14918,0,0,1,23.46092,3.405l.00488.13428c.00684.0913.01074.20165.01367.33056.02149.89793.14062,1.45163.708,1.8066.77146.48143,2.2519-.05615,2.61908-.292a2.91836,2.91836,0,0,1,2.333-.42577,3.50881,3.50881,0,0,1,2.2353,1.8315c.43554.80712,1.38766,2.53071,2.02632,3.68889l.50487.914c.90428,1.64694.40234,3.10882-1.49117,4.34756-1.2197.79735-1.15428,1.37741-1.13279,1.56784.13769,1.21677.2871,1.68209,1.42184,2.11421A2.58583,2.58583,0,0,1,34.24,20.94562a3.60855,3.60855,0,0,1-.32616,2.85589l-.13477.252a55.60986,55.60986,0,0,1-2.77826,4.85732c-1.541,2.11665-3.43644,1.27341-4.45693.82029-1.36618-.60692-1.78414-.56932-1.87887-.54442a1.61521,1.61521,0,0,1-.24608.1997c-.65136.47655-.9785.71581-1.07615,2.42378A3.038,3.038,0,0,1,20.09771,35Zm-5.1161-3.49992h4.87392c.19628-3.01459,1.292-4.05753,2.496-4.93837l.2539-.189c1.82613-1.41013,4.30069-.31006,5.36023.16015.06446.02881.19531.08691.32617.14062.30956-.47362.97654-1.61325,2.40229-4.27334l.02051-.03809a5.38444,5.38444,0,0,1-2.91107-4.66054c-.14941-1.33.19628-3.25628,2.69525-4.89052.05176-.03369.09766-.06445.13965-.09326l-.30078-.54686c-.623-1.12791-1.539-2.78754-1.997-3.63371-1.332.70359-3.93156,1.40524-6.00866.10693a5.2959,5.2959,0,0,1-2.35151-4.69082l-.00586-.165c-.00489-.08057-.00879-.1748-.01172-.27734l-.001-.00977H15.14665a6.1537,6.1537,0,0,1-2.53413,4.94716c-2.24311,1.78121-4.828.53075-5.67566.12109A1.91418,1.91418,0,0,0,6.61168,8.443c-.44531.75-1.53317,2.6933-2.0234,3.56877l-.23339.4165c-.0293.05224-.06543.11767-.10156.1831l.08007.06787a7.32087,7.32087,0,0,1,2.83979,4.11709c.34862,1.93746-.72167,4.01505-2.86322,5.557-.05274.03858-.09668.07275-.13281.103.23242.395.5703,1.01365.93943,1.69039.458.8408.96775,1.77682,1.36911,2.44672,2.7851-1.38961,4.66787-.9697,5.75867-.36913A5.79121,5.79121,0,0,1,14.98161,31.50008ZM28.79283,8.26572l-.001.001Z"/>
    <path d="M17.50109,24.76389a7.076,7.076,0,1,1,7.076-7.076A7.08428,7.08428,0,0,1,17.50109,24.76389Zm0-10.65211a3.5761,3.5761,0,1,0,3.57609,3.5761A3.58044,3.58044,0,0,0,17.50109,14.11178Z"/>
  </g>
</svg>
