<svg width="14" height="15" viewBox="0 0 14 15" fill="none" xmlns="http://www.w3.org/2000/svg">
<path d="M6.99979 1.83988C6.99979 1.30952 6.57015 0.879883 6.03979 0.879883H1.23979C0.709419 0.879883 0.279785 1.30952 0.279785 1.83988V6.63988C0.279785 7.17025 0.709419 7.59988 1.23979 7.59988H6.03979C6.57015 7.59988 6.99979 7.17025 6.99979 6.63988V1.83988ZM6.51979 6.63988C6.51979 6.90386 6.30376 7.11988 6.03979 7.11988H1.23979C0.975813 7.11988 0.759785 6.90386 0.759785 6.63988V1.83988C0.759785 1.57591 0.975813 1.35988 1.23979 1.35988H6.03979C6.30376 1.35988 6.51979 1.57591 6.51979 1.83988V6.63988Z" fill="white"/>
<path d="M12.76 7.6001H7.96C7.42963 7.6001 7 8.02973 7 8.5601V13.3601C7 13.8905 7.42963 14.3201 7.96 14.3201H12.76C13.2904 14.3201 13.72 13.8905 13.72 13.3601V8.5601C13.72 8.02973 13.2904 7.6001 12.76 7.6001ZM11.6367 12.1721C11.7616 12.2154 11.8288 12.3497 11.7879 12.4769C11.7545 12.5776 11.6608 12.64 11.56 12.64C11.536 12.64 11.5096 12.6352 11.4833 12.628C11.0105 12.4696 10.6433 12.268 10.36 12.0447C10.0767 12.268 9.70962 12.4696 9.23671 12.628C9.21033 12.6352 9.18395 12.64 9.15997 12.64C9.05912 12.64 8.96551 12.5776 8.93203 12.4768C8.89118 12.3496 8.95841 12.2152 9.08323 12.172C9.46963 12.0447 9.77203 11.884 10.0072 11.7087C9.52237 11.1639 9.41683 10.5759 9.39756 10.2399L9.15998 10.24C9.02792 10.24 8.91998 10.1321 8.91998 10C8.91998 9.86797 9.02792 9.76003 9.15998 9.76003H10.12V9.52003C10.12 9.38797 10.2279 9.28003 10.36 9.28003C10.492 9.28003 10.6 9.38797 10.6 9.52003V9.76003H11.56C11.692 9.76003 11.8 9.86797 11.8 10C11.8 10.1321 11.692 10.24 11.56 10.24H11.3224C11.3032 10.5761 11.1976 11.164 10.7128 11.7088C10.9479 11.884 11.2504 12.0424 11.6367 12.1721H11.6367Z" fill="white"/>
<path d="M10.3598 11.3894C10.7438 10.9526 10.8302 10.4966 10.8446 10.2397H9.87256C9.88461 10.4965 9.971 10.9549 10.3598 11.3894V11.3894Z" fill="white"/>
<path d="M3.86137 2.70716C3.82414 2.61796 3.73668 2.55957 3.63985 2.55957C3.54302 2.55957 3.45556 2.61796 3.41833 2.70716L2.75082 4.30923C2.70703 4.35276 2.67984 4.41303 2.67984 4.47959L2.21832 5.58719C2.16715 5.7096 2.22515 5.8501 2.34742 5.90099C2.46983 5.95215 2.61019 5.89442 2.66122 5.77188L3.09984 4.71962H4.17998L4.61846 5.77202C4.65677 5.86403 4.74583 5.91961 4.83985 5.91961C4.87078 5.91961 4.90199 5.91371 4.93226 5.90113C5.05467 5.85023 5.11252 5.70961 5.06136 5.58733L3.86137 2.70716ZM3.2998 4.23956L3.63985 3.42339L3.97989 4.23956H3.2998Z" fill="white"/>
<path d="M7.75963 4.60446C7.77289 4.62562 7.78762 4.64464 7.80664 4.66071C7.81039 4.66379 7.81186 4.66874 7.81575 4.67169L8.77573 5.39169C8.81899 5.4241 8.86935 5.43977 8.91944 5.43977C8.99256 5.43977 9.06448 5.40669 9.11162 5.34361C9.19131 5.23767 9.16975 5.08713 9.06354 5.00771L8.67972 4.71977H9.39971C9.46841 4.71977 11.0797 4.7416 11.0797 6.63977C11.0797 6.77236 11.1871 6.87977 11.3197 6.87977C11.4523 6.87977 11.5597 6.77236 11.5597 6.63977C11.5597 4.26723 9.42127 4.23977 9.39971 4.23977H8.67972L9.06368 3.95169C9.16989 3.87227 9.19145 3.72173 9.11176 3.61579C9.03234 3.50932 8.88181 3.48802 8.77587 3.56771L7.81589 4.28772C7.812 4.29066 7.81039 4.29548 7.80678 4.2987C7.78776 4.31477 7.77303 4.33379 7.75977 4.35495C7.75455 4.36325 7.74785 4.36995 7.7437 4.37879C7.7291 4.40972 7.71973 4.44334 7.71973 4.47977C7.71973 4.5162 7.7291 4.54981 7.74357 4.58062C7.74772 4.58946 7.75441 4.59615 7.75964 4.60446L7.75963 4.60446Z" fill="white"/>
<path d="M6.24018 10.5951C6.22692 10.574 6.21205 10.5548 6.19303 10.5388C6.18928 10.5357 6.18781 10.5307 6.18393 10.5278L5.22393 9.80777C5.11826 9.72849 4.96772 9.74965 4.88803 9.85585C4.80835 9.96179 4.82991 10.1123 4.93611 10.1917L5.31994 10.4798H4.59994C4.53124 10.4798 2.91994 10.458 2.91994 8.55982C2.91994 8.42723 2.81253 8.31982 2.67994 8.31982C2.54735 8.31982 2.43994 8.42723 2.43994 8.55982C2.43994 10.9324 4.57838 10.9598 4.59994 10.9598H5.31994L4.93598 11.2479C4.82977 11.3273 4.80821 11.4779 4.8879 11.5838C4.93517 11.6467 5.00709 11.6798 5.08022 11.6798C5.13044 11.6798 5.1808 11.6642 5.22392 11.6317L6.18392 10.9117C6.18781 10.9088 6.18942 10.904 6.19303 10.9008C6.21205 10.8847 6.22678 10.8657 6.24004 10.8445C6.24526 10.8362 6.25196 10.8295 6.25611 10.8207C6.27058 10.7899 6.27995 10.7563 6.27995 10.7198C6.27995 10.6834 6.27058 10.6498 6.25611 10.6188C6.25196 10.6101 6.24526 10.6034 6.24017 10.5951L6.24018 10.5951Z" fill="white"/>
</svg>
