<svg id="Layer_1" data-name="Layer 1" xmlns="http://www.w3.org/2000/svg" width="35" height="35" viewBox="0 0 35 35">
  <path d="M17.5,0a17.119,17.119,0,0,1,8.78418,2.347A17.42121,17.42121,0,0,1,32.653,8.71582,17.119,17.119,0,0,1,35,17.5a17.119,17.119,0,0,1-2.347,8.78418A17.42113,17.42113,0,0,1,26.28418,32.653,17.119,17.119,0,0,1,17.5,35a17.119,17.119,0,0,1-8.78418-2.347A17.42121,17.42121,0,0,1,2.347,26.28418,17.119,17.119,0,0,1,0,17.5,17.119,17.119,0,0,1,2.347,8.71582,17.42128,17.42128,0,0,1,8.71582,2.347,17.119,17.119,0,0,1,17.5,0Zm6.24349,11.87174a1.28938,1.28938,0,0,0-.21647.21648.58833.58833,0,0,1-.30762.21647q.04557,0,.10254-.11393t.11393-.25066a.69936.69936,0,0,1,.07975-.1595,1.64872,1.64872,0,0,1,.50131-.3418,5.74151,5.74151,0,0,1,1.18489-.27344,1.11033,1.11033,0,0,1,1.16211.25066q-.04557-.04558.21647-.29623a1.56689,1.56689,0,0,1,.33041-.27344,1.229,1.229,0,0,1,.34179-.10253.50931.50931,0,0,0,.3418-.1709l.04557-.50131a.40482.40482,0,0,1-.39876-.1595.96381.96381,0,0,1-.14811-.47852q0,.04558-.13672.1823,0-.15951-.10254-.1823a.548.548,0,0,0-.262.02279.35984.35984,0,0,1-.20508.02279.89474.89474,0,0,1-.3418-.1709.75121.75121,0,0,1-.18229-.376q-.06835-.27344-.09115-.3418a.60879.60879,0,0,0-.21647-.23925.60888.60888,0,0,1-.21647-.23926q-.02278-.04557-.057-.12533t-.06836-.14811a.4808.4808,0,0,0-.09115-.12532.17421.17421,0,0,0-.12533-.057q-.06835,0-.1595.11393t-.1709.22787q-.07976.11392-.10254.11393a.18617.18617,0,0,0-.13672-.03418.72638.72638,0,0,0-.10254.02279A.384.384,0,0,0,24.222,8.169a.63751.63751,0,0,1-.11394.07975.52009.52009,0,0,1-.19368.06836,1.48991,1.48991,0,0,0-.19369.04557q.34181-.11392-.02278-.25065a.71922.71922,0,0,0-.36459-.06836.23746.23746,0,0,0,.1709-.27344.54824.54824,0,0,0-.19368-.319h.11393q-.02279-.09114-.19369-.19368A2.79376,2.79376,0,0,0,22.832,7.0638a1.96022,1.96022,0,0,1-.29622-.13672,2.52528,2.52528,0,0,0-.77474-.21647,1.41211,1.41211,0,0,0-.752-.01139.33832.33832,0,0,0-.10253.23926,1.54292,1.54292,0,0,0,.09114.319,1.10045,1.10045,0,0,1,.07975.28483.36107.36107,0,0,1-.12532.29622A.44586.44586,0,0,0,20.804,8.112q0,.15951.319.35319a.40208.40208,0,0,1,.22786.48991.82592.82592,0,0,1-.36458.36458,1.52689,1.52689,0,0,0-.36459.27344.47624.47624,0,0,0-.03417.42155.82508.82508,0,0,0,.23925.376.09467.09467,0,0,1,.03418.09115.22086.22086,0,0,1-.07975.10254,1.01968,1.01968,0,0,1-.12533.09115q-.057.03417-.14811.07975l-.06836.04557a.37313.37313,0,0,1-.46712-.13672,1.473,1.473,0,0,1-.30762-.59245q-.15949-.56966-.36458-.68359-.52408-.18229-.66081.02279-.11393-.29624-.93424-.59245a2.68469,2.68469,0,0,0-1.32162-.09115q.13672-.02278,0-.34179-.15949-.3418-.43294-.27344a1.14406,1.14406,0,0,0,.09115-.39876q.02279-.262.02278-.30762a1.16237,1.16237,0,0,1,.27344-.52409q.02278-.02278.15951-.19368a2.61649,2.61649,0,0,0,.21647-.30762q.07976-.13673.01139-.13672a1.3449,1.3449,0,0,0,1.13932-.25065,1.75212,1.75212,0,0,0,.262-.38737,2.83864,2.83864,0,0,1,.23926-.38737.553.553,0,0,1,.319-.12533,1.02047,1.02047,0,0,1,.3304.12533.802.802,0,0,0,.3304.11393q.319.02279.35319-.25065a.49463.49463,0,0,0-.1709-.45573q.27345.02278.06836-.38737a.86976.86976,0,0,0-.18229-.20508.731.731,0,0,0-.61523.11394q-.18229.09114.04557.18229-.02278-.02279-.21647.23925a1.92727,1.92727,0,0,1-.376.39877q-.18228.13671-.36458-.11393A1.83864,1.83864,0,0,1,17.762,4.5459q-.10254-.28483-.21647-.30762-.18228,0-.36458.3418.06835-.18229-.25065-.3418a1.639,1.639,0,0,0-.54688-.18229q.43295-.27344-.18229-.61523a1.13167,1.13167,0,0,0-.46712-.11394.61881.61881,0,0,0-.44434.09115.61317.61317,0,0,0-.12532.262.19417.19417,0,0,0,.11393.18229,1.45888,1.45888,0,0,0,.23926.12533q.11392.04557.262.09115a1.5613,1.5613,0,0,1,.19369.06836q.319.22785.18229.319-.04557.02279-.19369.07975t-.262.10254a.25983.25983,0,0,0-.13672.09114.37377.37377,0,0,0,0,.319q.06836.22787-.04557.319a1.00873,1.00873,0,0,1-.20508-.39876,1.45273,1.45273,0,0,0-.15951-.376q.15951.20508-.56966.13672l-.22786-.02278a2.79613,2.79613,0,0,0-.36458.04557,1.69335,1.69335,0,0,1-.46713.02279.42367.42367,0,0,1-.30761-.1823.58712.58712,0,0,1,0-.45572q.02278-.09116.09114-.04558-.09114-.06835-.25065-.21647a2.22378,2.22378,0,0,0-.22786-.19368,12.92222,12.92222,0,0,0-2.14193.93424.561.561,0,0,0,.27344-.02279,2.64761,2.64761,0,0,0,.29622-.14811q.18229-.10254.22787-.12532.77474-.319.957-.15951l.11393-.11393a6.071,6.071,0,0,1,.45573.56966,1.29411,1.29411,0,0,0-.6836-.02279q-.45573.13673-.5013.27344a.55773.55773,0,0,1,.11393.41016q-.09114-.06835-.262-.22787a1.80761,1.80761,0,0,0-.3304-.25065.90979.90979,0,0,0-.3418-.11393,3.61344,3.61344,0,0,0-.5013.02279A14.379,14.379,0,0,0,5.14974,9.77539a.60372.60372,0,0,0,.27344.18229q.09114.02279.11393.20508a.87277.87277,0,0,0,.057.25065q.03417.06835.262-.06836a.31929.31929,0,0,1,.06836.43294,8.36211,8.36211,0,0,1,1.0026.61524,3.11045,3.11045,0,0,1,.47852.47851q.06836.25066-.22787.41016a1.16538,1.16538,0,0,0-.20507-.20508q-.18229-.15949-.20508-.09114a.60824.60824,0,0,0,.01139.42155q.07975.3076.23926.28483-.15951,0-.21647.36458a5.263,5.263,0,0,0-.057.80892A3.39821,3.39821,0,0,1,6.722,14.401l.04557.02279A1.41886,1.41886,0,0,0,6.8929,15.21q.19369.5127.48991.44434-.29622.06836.45573.97981a.89388.89388,0,0,0,.18229.20508q.06837.04557.27344.1709t.3418.22787a.9719.9719,0,0,1,.22786.23925,2.00516,2.00516,0,0,1,.22787.5127,1.11451,1.11451,0,0,0,.319.53548q-.04557.13672.21647.45573a.78294.78294,0,0,1,.23926.52409.11076.11076,0,0,0-.057.02278.11067.11067,0,0,1-.057.02279.77757.77757,0,0,0,.35319.319.85626.85626,0,0,1,.35319.29623,1.45537,1.45537,0,0,1,.04558.22786.83821.83821,0,0,0,.06836.25065q.04557.09114.18229.04557a2.68193,2.68193,0,0,0-.54688-1.41276q-.34179-.56965-.38737-.6608a1.3101,1.3101,0,0,1-.12532-.35319,1.73785,1.73785,0,0,0-.10254-.33041.43682.43682,0,0,1,.13672.03418q.09114.03418.19368.07976a1.161,1.161,0,0,1,.1709.09114q.06836.04557.04557.06836a.483.483,0,0,0,.04558.39876,1.8308,1.8308,0,0,0,.27343.42155q.15951.18229.38737.433t.27344.29622a2.34157,2.34157,0,0,1,.319.44434q.18229.30761,0,.30761a.71762.71762,0,0,1,.45573.22787,2.06347,2.06347,0,0,1,.38737.45573,1.70462,1.70462,0,0,1,.18229.59244,4.39263,4.39263,0,0,0,.11393.54688.72076.72076,0,0,0,.19369.30762,1.1306,1.1306,0,0,0,.28483.21647l.36458.18229.29623.1595a3.32477,3.32477,0,0,1,.42155.23926,2.94035,2.94035,0,0,0,.48991.262,1.05042,1.05042,0,0,0,.36458.09114,1.20424,1.20424,0,0,0,.3304-.057q.19369-.057.30762-.07976a.74122.74122,0,0,1,.66081.3418,2.248,2.248,0,0,0,.47851.47852,1.56045,1.56045,0,0,0,1.25326.25065q-.04557.02278.01139.1709a2.26213,2.26213,0,0,0,.18229.35319q.12532.20507.20508.3304t.12533.19368a2.163,2.163,0,0,0,.41015.3418,2.1628,2.1628,0,0,1,.41016.3418A.3347.3347,0,0,0,19.528,26.25q-.06835.18229.15951.45573t.41016.22786q.319-.06835.319-.72916a.76714.76714,0,0,1-1.11654-.41016.44405.44405,0,0,0-.057-.12532,1.35417,1.35417,0,0,1-.14811-.38737.32306.32306,0,0,1,0-.1709.10526.10526,0,0,1,.11393-.06836q.20508,0,.22787-.07975a.56853.56853,0,0,0-.04557-.28484q-.06837-.20507-.09115-.29622a.98479.98479,0,0,0-.25065-.45573q-.22786-.27343-.27344-.3418a.34651.34651,0,0,1-.36458.1823.44944.44944,0,0,1-.36458-.20508.629.629,0,0,1-.03418.12532.542.542,0,0,0-.03418.14812,1.29916,1.29916,0,0,1-.3418-.02279,2.82021,2.82021,0,0,0,.057-.39876,3.88476,3.88476,0,0,1,.07976-.5127,1.26614,1.26614,0,0,1,.12532-.27344q.10254-.18229.1709-.3304a1.12309,1.12309,0,0,0,.09115-.28483.201.201,0,0,0-.10254-.21647.66081.66081,0,0,0-.39876-.057.62922.62922,0,0,0-.59245.45573q-.02279.06836-.06836.23926a.7717.7717,0,0,1-.11393.262.5673.5673,0,0,1-.20508.15951,1.332,1.332,0,0,1-.54688.04557,1.343,1.343,0,0,1-.54687-.11393,1.44377,1.44377,0,0,1-.5127-.66081,2.09368,2.09368,0,0,1-.21647-.8431,4.23423,4.23423,0,0,1,.057-.60384q.057-.376.06836-.56966a1.49658,1.49658,0,0,0-.12533-.55827,1.156,1.156,0,0,0,.20508-.21647,1.41512,1.41512,0,0,1,.22786-.23926.407.407,0,0,1,.10254-.03418.233.233,0,0,1,.10254,0,.09469.09469,0,0,0,.09115-.03418A.28891.28891,0,0,0,15.6543,18.89a.67991.67991,0,0,0-.09115-.06836q-.06836-.06836-.09114-.06835a1.30775,1.30775,0,0,0,.64941-.03418q.4899-.10254.62663.03418.34179.25065.5013-.04558a1.81357,1.81357,0,0,0-.057-.21647.48023.48023,0,0,1-.01139-.30762q.11392.61524.66081.20508a.73776.73776,0,0,0,.35319.11393,1.21275,1.21275,0,0,1,.39876.11394,1.59468,1.59468,0,0,1,.15951.12532,1.53483,1.53483,0,0,0,.12532.10254q.03419.02278.11393-.01139a.687.687,0,0,0,.19369-.14811,1.51732,1.51732,0,0,1,.27344.54687q.25065.91146.43294,1.00261a.418.418,0,0,0,.25065.04557q.09114-.02278.10254-.21647a2.21193,2.21193,0,0,0,0-.319q-.0114-.12532-.03418-.28483l-.02279-.1823v-.41015L20.166,18.6849a.51378.51378,0,0,1-.42155-.27344.48906.48906,0,0,1,.03418-.42155,1.54607,1.54607,0,0,1,.34179-.42155.74372.74372,0,0,1,.18229-.07975q.15951-.057.35319-.14812a1.02457,1.02457,0,0,0,.28484-.18229q.47851-.43295.34179-.79752.15951,0,.25065-.20508a.33335.33335,0,0,1-.11393-.06836,1.6651,1.6651,0,0,0-.1709-.11393.30948.30948,0,0,0-.10254-.04558q.20508-.11393.04558-.36458a.42346.42346,0,0,0,.17089-.25065.32884.32884,0,0,1,.1709-.22786.29167.29167,0,0,0,.47852.04557.26255.26255,0,0,0,.02279-.36459.767.767,0,0,1,.46712-.23925q.35319-.07975.42155-.21647.15949.04557.18229-.04558a1.2146,1.2146,0,0,0,.02279-.27343.45334.45334,0,0,1,.06835-.27344.77593.77593,0,0,1,.3418-.20508q.25065-.09114.29623-.11393l.38737-.25065q.06835-.09116,0-.09115a.82484.82484,0,0,0,.70638-.25065q.22785-.25065-.13672-.45573a.1477.1477,0,0,0-.06836-.21647,1.19242,1.19242,0,0,0-.3418-.12533.82624.82624,0,0,1,.262-.01139q.1937.0114.23926-.03418.34181-.22786-.1595-.36458A1.23366,1.23366,0,0,0,23.74349,11.87174ZM20.0293,31.85547a14.0994,14.0994,0,0,0,7.998-4.30664.543.543,0,0,0-.28483-.10254.81881.81881,0,0,1-.28483-.07975,3.58463,3.58463,0,0,0-.54687-.1823.44643.44643,0,0,0-.057-.29622.60824.60824,0,0,0-.18229-.20508q-.10254-.06835-.28483-.18229t-.25065-.1595q-.04558-.04559-.15951-.13672t-.1595-.12533a1.62018,1.62018,0,0,0-.1709-.10254.26213.26213,0,0,0-.19369-.04557.79946.79946,0,0,1-.22786.02279l-.06836.02278a.62965.62965,0,0,0-.12533.057q-.057.03419-.12532.06836a.23482.23482,0,0,0-.09115.06836q-.02278.03417,0,.057a2.82135,2.82135,0,0,0-.82031-.5013.64353.64353,0,0,1-.25065-.12532,2.16473,2.16473,0,0,0-.23926-.15951.33283.33283,0,0,0-.22786-.03418.52.52,0,0,0-.262.15951.54484.54484,0,0,0-.13672.34179,1.7275,1.7275,0,0,1-.04557.29623q-.15949-.11394,0-.39877t.04557-.42155a.19589.19589,0,0,0-.23925-.10253.76234.76234,0,0,0-.27344.10253q-.10254.06837-.262.19369a1.77388,1.77388,0,0,1-.20507.14811,2.17865,2.17865,0,0,0-.19369.12533.76646.76646,0,0,0-.19368.1709,1.13076,1.13076,0,0,0-.13672.27343,1.3791,1.3791,0,0,1-.11393.25065q-.04558-.09114-.262-.14811t-.21647-.12532a7.938,7.938,0,0,1,.09115.79752,6.39918,6.39918,0,0,0,.11393.86589A1.05162,1.05162,0,0,1,20.71289,29.03a1.87785,1.87785,0,0,0-.66081.91146q-.09114.5013.27344.59244a1.05476,1.05476,0,0,1-.18229.46713.84375.84375,0,0,0-.15951.48991A1.96086,1.96086,0,0,0,20.0293,31.85547Z"/>
</svg>
